<mxfile host="app.diagrams.net" agent="Mozilla/5.0 (Windows NT 10.0; Win64; x64) AppleWebKit/537.36 (KHTML, like Gecko) Chrome/133.0.0.0 Safari/537.36" version="26.1.0">
  <diagram name="第 1 页" id="hyKTTeJvPbaEbPAjzCFQ">
    <mxGraphModel dx="2074" dy="1098" grid="1" gridSize="10" guides="1" tooltips="1" connect="1" arrows="1" fold="1" page="1" pageScale="1" pageWidth="827" pageHeight="1169" math="0" shadow="0">
      <root>
        <mxCell id="0" />
        <mxCell id="1" parent="0" />
        <mxCell id="5rEW41JVgZ4OO81YoyHr-2" value="&lt;font style=&quot;font-size: 18px;&quot;&gt;Launcher&lt;/font&gt;" style="rounded=0;whiteSpace=wrap;html=1;" vertex="1" parent="1">
          <mxGeometry x="50" y="180" width="270" height="430" as="geometry" />
        </mxCell>
        <mxCell id="5rEW41JVgZ4OO81YoyHr-3" value="&lt;div&gt;&lt;br&gt;&lt;/div&gt;&lt;div&gt;&lt;br&gt;&lt;/div&gt;&lt;div&gt;&lt;br&gt;&lt;/div&gt;&lt;div&gt;&lt;br&gt;&lt;/div&gt;&lt;div&gt;&lt;br&gt;&lt;/div&gt;&lt;div&gt;&lt;br&gt;&lt;/div&gt;&lt;div&gt;&lt;br&gt;&lt;/div&gt;&lt;div&gt;&lt;br&gt;&lt;/div&gt;&lt;div&gt;&lt;br&gt;&lt;/div&gt;&lt;div&gt;&lt;br&gt;&lt;/div&gt;&lt;div&gt;&lt;br&gt;&lt;/div&gt;&lt;div&gt;&lt;br&gt;&lt;/div&gt;&lt;div&gt;&lt;br&gt;&lt;/div&gt;&lt;div&gt;&lt;br&gt;&lt;/div&gt;&lt;div&gt;&lt;br&gt;&lt;/div&gt;&lt;div&gt;&lt;font style=&quot;font-size: 18px;&quot;&gt;LiveSDK&lt;/font&gt;&lt;/div&gt;" style="rounded=0;whiteSpace=wrap;html=1;" vertex="1" parent="1">
          <mxGeometry x="505" y="180" width="270" height="430" as="geometry" />
        </mxCell>
        <mxCell id="5rEW41JVgZ4OO81YoyHr-5" value="main&amp;nbsp;" style="rounded=0;whiteSpace=wrap;html=1;" vertex="1" parent="1">
          <mxGeometry x="520" y="228" width="240" height="70" as="geometry" />
        </mxCell>
        <mxCell id="5rEW41JVgZ4OO81YoyHr-6" value="renderer" style="rounded=0;whiteSpace=wrap;html=1;" vertex="1" parent="1">
          <mxGeometry x="520" y="350" width="240" height="70" as="geometry" />
        </mxCell>
        <mxCell id="5rEW41JVgZ4OO81YoyHr-12" value="" style="shape=flexArrow;endArrow=classic;startArrow=classic;html=1;rounded=0;width=4;startSize=8.78;entryX=0.014;entryY=0.104;entryDx=0;entryDy=0;entryPerimeter=0;" edge="1" parent="1">
          <mxGeometry width="100" height="100" relative="1" as="geometry">
            <mxPoint x="329.22" y="234.5" as="sourcePoint" />
            <mxPoint x="505.0000000000002" y="234.5" as="targetPoint" />
          </mxGeometry>
        </mxCell>
        <mxCell id="5rEW41JVgZ4OO81YoyHr-14" value="Configure main&amp;nbsp;" style="edgeLabel;html=1;align=center;verticalAlign=middle;resizable=0;points=[];" vertex="1" connectable="0" parent="5rEW41JVgZ4OO81YoyHr-12">
          <mxGeometry x="0.7256" y="-2" relative="1" as="geometry">
            <mxPoint x="85" y="-14" as="offset" />
          </mxGeometry>
        </mxCell>
        <mxCell id="5rEW41JVgZ4OO81YoyHr-13" value="UseLive" style="text;html=1;align=center;verticalAlign=middle;resizable=0;points=[];autosize=1;strokeColor=none;fillColor=none;" vertex="1" parent="1">
          <mxGeometry x="379" y="248" width="70" height="30" as="geometry" />
        </mxCell>
        <mxCell id="5rEW41JVgZ4OO81YoyHr-16" value="" style="shape=flexArrow;endArrow=classic;startArrow=classic;html=1;rounded=0;width=4;startSize=8.78;entryX=0.014;entryY=0.104;entryDx=0;entryDy=0;entryPerimeter=0;" edge="1" parent="1">
          <mxGeometry width="100" height="100" relative="1" as="geometry">
            <mxPoint x="326.11" y="360" as="sourcePoint" />
            <mxPoint x="501.8900000000002" y="360" as="targetPoint" />
          </mxGeometry>
        </mxCell>
        <mxCell id="5rEW41JVgZ4OO81YoyHr-18" value="getModuleEntry" style="text;html=1;align=center;verticalAlign=middle;resizable=0;points=[];autosize=1;strokeColor=none;fillColor=none;" vertex="1" parent="1">
          <mxGeometry x="359" y="380" width="110" height="30" as="geometry" />
        </mxCell>
      </root>
    </mxGraphModel>
  </diagram>
</mxfile>
